HIERARCHY
ROOT Hips
{
	OFFSET -0.001795 -0.223333 0.028219
	CHANNELS 6 Xposition Yposition Zposition Zrotation Yrotation Xrotation 
	JOINT LeftUpLeg
	{
		OFFSET 0.069520 -0.091406 -0.006815
		CHANNELS 3 Zrotation Yrotation Xrotation
		JOINT LeftLeg
		{
			OFFSET 0.034277 -0.375199 -0.004496
			CHANNELS 3 Zrotation Yrotation Xrotation
			JOINT LeftFoot
			{
				OFFSET -0.013596 -0.397961 -0.043693
				CHANNELS 3 Zrotation Yrotation Xrotation
				JOINT LeftToe
				{
					OFFSET 0.026358 -0.055791 0.119288
					CHANNELS 3 Zrotation Yrotation Xrotation
					End Site
					{
						OFFSET 0.000000 0.000000 0.000000
					}
				}
			}
		}
	}
	JOINT RightUpLeg
	{
		OFFSET -0.067670 -0.090522 -0.004320
		CHANNELS 3 Zrotation Yrotation Xrotation
		JOINT RightLeg
		{
			OFFSET -0.038290 -0.382569 -0.008850
			CHANNELS 3 Zrotation Yrotation Xrotation
			JOINT RightFoot
			{
				OFFSET 0.015774 -0.398415 -0.042312
				CHANNELS 3 Zrotation Yrotation Xrotation
				JOINT RightToe
				{
					OFFSET -0.025372 -0.048144 0.123348
					CHANNELS 3 Zrotation Yrotation Xrotation
					End Site
					{
						OFFSET 0.000000 0.000000 0.000000
					}
				}
			}
		}
	}
	JOINT Spine
	{
		OFFSET -0.002533 0.108963 -0.026696
		CHANNELS 3 Zrotation Yrotation Xrotation
		JOINT Spine1
		{
			OFFSET 0.005487 0.135180 0.001092
			CHANNELS 3 Zrotation Yrotation Xrotation
			JOINT Spine2
			{
				OFFSET 0.001457 0.052922 0.025425
				CHANNELS 3 Zrotation Yrotation Xrotation
				JOINT Neck
				{
					OFFSET -0.002778 0.213870 -0.042857
					CHANNELS 3 Zrotation Yrotation Xrotation
					JOINT Head
					{
						OFFSET 0.005152 0.064970 0.051349
						CHANNELS 3 Zrotation Yrotation Xrotation
						End Site
						{
							OFFSET 0.000000 0.000000 0.000000
						}
					}
				}
				JOINT LeftShoulder
				{
					OFFSET 0.078845 0.121749 -0.034090
					CHANNELS 3 Zrotation Yrotation Xrotation
					JOINT LeftArm
					{
						OFFSET 0.090977 0.030469 -0.008868
						CHANNELS 3 Zrotation Yrotation Xrotation
						JOINT LeftForeArm
						{
							OFFSET 0.259612 -0.012772 -0.027456
							CHANNELS 3 Zrotation Yrotation Xrotation
							JOINT LeftHand
							{
								OFFSET 0.249234 0.008986 -0.001171
								CHANNELS 3 Zrotation Yrotation Xrotation
								End Site
								{
									OFFSET 0.000000 0.000000 0.000000
								}
							}
						}
					}
				}
				JOINT RightShoulder
				{
					OFFSET -0.081759 0.118833 -0.038615
					CHANNELS 3 Zrotation Yrotation Xrotation
					JOINT RightArm
					{
						OFFSET -0.096012 0.032551 -0.009143
						CHANNELS 3 Zrotation Yrotation Xrotation
						JOINT RightForeArm
						{
							OFFSET -0.253742 -0.013329 -0.021401
							CHANNELS 3 Zrotation Yrotation Xrotation
							JOINT RightHand
							{
								OFFSET -0.255298 0.007772 -0.005559
								CHANNELS 3 Zrotation Yrotation Xrotation
								End Site
								{
									OFFSET 0.000000 0.000000 0.000000
								}
							}
						}
					}
				}
			}
		}
	}
}
MOTION
Frames: 15
Frame Time: 0.050000
0.000000 0.909436 0.000000 -0.905181 -2.941846 0.986190 1.707811 -1.265670 -17.159347 -1.742859 -0.037299 21.282159 3.318683 6.371709 -2.257302 0.000000 0.000000 0.000000 -1.640757 -0.442930 6.041569 -3.844008 2.142071 21.031381 -0.428787 0.690795 -3.071499 0.000000 0.000000 0.000000 -1.000688 -0.320709 11.249898 -1.334670 0.636188 1.745227 -1.109567 6.066912 4.490492 5.583566 -2.191327 -13.107526 0.000000 0.000000 0.000000 -26.832861 -3.863409 -2.099581 -42.982526 1.435165 -4.978481 -8.598848 -31.608185 3.286896 0.000000 0.000000 0.000000 21.559496 0.022079 -0.651375 42.885193 -3.090303 -5.483016 4.277403 36.444764 3.030706 0.000000 0.000000 0.000000 
0.014346 0.912421 0.027102 -0.918517 -1.043851 0.522060 -0.113717 -1.315185 -14.376672 -0.493244 -0.511053 20.195230 2.865908 4.850691 -3.562967 0.000000 0.000000 0.000000 -1.521575 -0.299835 3.962633 -4.818216 3.143289 29.336187 0.745079 1.752154 0.269761 0.000000 0.000000 0.000000 -1.644022 -0.287454 11.877907 -1.005038 0.460047 1.664925 -0.757718 4.080517 5.193941 5.450608 -2.253013 -12.950939 0.000000 0.000000 0.000000 -25.972075 -3.033864 -2.041199 -43.678044 -0.386389 -4.666952 -6.283078 -31.477261 2.719119 0.000000 0.000000 0.000000 21.342118 -0.510380 -1.231759 44.235521 -5.264745 -6.369505 4.569286 37.909347 3.202210 0.000000 0.000000 0.000000 
0.026717 0.915704 0.053044 -0.506590 -1.059151 -0.406177 -1.890877 -1.258859 -11.871191 0.145907 -0.713610 20.616400 2.873999 4.943841 -3.353400 0.000000 0.000000 0.000000 -2.948829 0.304535 -3.155133 -1.758627 3.119654 44.459662 -0.202998 -2.373463 3.838533 0.000000 0.000000 0.000000 -2.604615 -0.191347 12.393246 -0.947321 0.434179 1.576898 -0.622208 3.541079 6.638972 4.878327 -2.270147 -10.809583 0.000000 0.000000 0.000000 -25.608856 -5.140863 -0.444635 -42.769647 -2.238073 -4.137340 -7.548970 -31.779001 3.174368 0.000000 0.000000 0.000000 21.298252 0.967935 -0.516979 43.926218 -6.515239 -6.804869 3.283683 37.810658 2.700703 0.000000 0.000000 0.000000 
0.035994 0.917378 0.077932 -0.746919 -0.567794 -0.826872 -2.366800 -0.896582 -8.192539 0.369689 -0.706414 17.878627 2.767137 4.231726 -4.512893 0.000000 0.000000 0.000000 -2.554236 0.763948 -9.078339 -0.241337 2.688740 52.593282 -1.478536 -5.919369 5.636616 0.000000 0.000000 0.000000 -2.326093 -0.249510 13.147237 -1.061809 0.480441 2.193876 -0.009973 1.285724 6.562848 3.786286 -1.689752 -10.973600 0.000000 0.000000 0.000000 -26.017244 -5.978295 0.812806 -41.378458 -1.970615 -4.311941 -7.803024 -33.970898 3.652590 0.000000 0.000000 0.000000 20.411030 1.198434 -0.929858 43.932696 -8.115083 -7.184936 3.444657 38.007158 2.552961 0.000000 0.000000 0.000000 
0.042741 0.918431 0.102795 -1.304938 0.600894 -1.673033 -2.385788 -0.487342 -4.537857 0.924994 -0.815292 15.903141 2.430976 2.914681 -5.502617 0.000000 0.000000 0.000000 -1.824261 1.201067 -13.926689 2.062304 0.922981 55.534366 -3.829251 -10.663858 4.313921 0.000000 0.000000 0.000000 -1.841715 -0.364816 14.298659 0.028673 -0.110065 3.141354 -0.916611 -0.848079 6.419712 2.643117 -1.087017 -10.429366 0.000000 0.000000 0.000000 -26.325175 -6.465352 1.594349 -39.275802 -3.973632 -3.635747 -5.281021 -34.334654 3.010917 0.000000 0.000000 0.000000 20.443177 1.659526 -1.060488 44.433654 -8.711386 -7.387351 2.606909 39.367980 2.226024 0.000000 0.000000 0.000000 
0.047597 0.920244 0.128436 -1.966146 1.047656 -2.473645 -1.615132 -0.109905 -1.168244 0.555146 -0.671850 14.423845 2.125283 2.098667 -5.568250 0.000000 0.000000 0.000000 -1.202150 1.669131 -18.592412 3.302927 -0.086864 52.811417 -4.619527 -12.034962 2.502893 0.000000 0.000000 0.000000 -1.420786 -0.486618 15.908398 0.568546 -0.395841 3.136288 -0.791747 -2.326219 6.185243 2.247702 -1.012482 -9.431225 0.000000 0.000000 0.000000 -26.568061 -7.788559 2.884011 -38.695319 -5.280612 -3.342007 -3.310355 -35.997913 2.628136 0.000000 0.000000 0.000000 20.768505 1.724954 -1.417565 44.008973 -8.547632 -7.159216 3.039330 41.164695 2.338961 0.000000 0.000000 0.000000 
0.051111 0.921770 0.155048 -2.663530 1.075316 -2.654721 -0.861863 0.149965 1.479496 0.386570 -0.577661 13.147943 1.927498 1.772241 -5.244520 0.000000 0.000000 0.000000 -0.039985 2.217091 -22.411706 3.205269 -0.072980 45.574144 -4.569115 -11.885381 2.433254 0.000000 0.000000 0.000000 -1.046520 -0.563063 16.414549 1.244671 -0.781271 3.820795 -0.846874 -3.330962 5.667357 1.340986 -0.514428 -8.477804 0.000000 0.000000 0.000000 -26.581336 -7.556690 3.064456 -38.393928 -7.373899 -2.776458 -1.232782 -37.048943 2.096342 0.000000 0.000000 0.000000 20.389843 2.425841 -1.270835 45.746133 -8.706972 -7.445141 4.878729 44.222486 3.114336 0.000000 0.000000 0.000000 
0.053464 0.922551 0.183163 -2.745297 0.883531 -2.732048 -0.610544 0.409711 4.279018 0.007761 -0.425931 11.585585 1.681222 1.586115 -4.459180 0.000000 0.000000 0.000000 0.534007 2.651165 -25.486106 2.989026 0.032082 37.212017 -4.057595 -10.902333 3.361122 0.000000 0.000000 0.000000 -1.276702 -0.555187 17.262913 2.010642 -1.160558 3.387891 -0.937388 -3.368533 6.295198 1.364499 -0.616789 -7.578519 0.000000 0.000000 0.000000 -26.225665 -8.710004 3.868851 -38.177001 -9.328184 -2.268647 1.453491 -40.165040 1.364866 0.000000 0.000000 0.000000 20.786463 2.656237 -1.200743 46.407092 -8.326347 -7.478918 7.727432 48.315725 4.674304 0.000000 0.000000 0.000000 
0.055208 0.920699 0.213911 -2.903359 1.369596 -2.405803 -0.419673 0.639291 6.907683 0.202706 -0.401322 9.792205 1.394525 0.925103 -4.369480 0.000000 0.000000 0.000000 0.967252 2.821763 -26.486977 2.750182 -0.027814 24.391245 -5.217225 -14.258904 9.765508 0.000000 0.000000 0.000000 -1.048259 -0.606580 17.367943 2.683549 -1.520877 3.422286 -1.112940 -4.285316 6.120926 1.224466 -0.548052 -7.721351 0.000000 0.000000 0.000000 -26.336674 -9.175670 4.403109 -37.719088 -11.392800 -1.712836 3.315983 -43.443933 0.840887 0.000000 0.000000 0.000000 20.640226 3.158577 -1.096410 47.502696 -8.534069 -7.707125 12.354714 52.970410 7.320353 0.000000 0.000000 0.000000 
0.056154 0.916597 0.247945 -2.881211 1.715475 -2.148605 -0.582689 0.941401 10.130593 0.801302 -0.415330 7.515173 1.213799 0.469135 -4.391809 0.000000 0.000000 0.000000 0.913320 2.836920 -26.947957 3.055147 -0.215089 13.031730 -4.913944 -14.299701 15.785125 0.000000 0.000000 0.000000 -0.839181 -0.652535 17.493406 2.526464 -1.427198 3.197963 -0.823201 -5.049083 6.764324 0.657772 -0.250488 -6.766739 0.000000 0.000000 0.000000 -25.740590 -10.145031 5.268814 -38.439295 -13.155893 -1.327801 6.113543 -46.696930 -0.133811 0.000000 0.000000 0.000000 20.407066 3.671750 -0.952317 48.590597 -8.657001 -7.986924 18.280427 56.658186 10.965941 0.000000 0.000000 0.000000 
0.056059 0.909163 0.285660 -2.453421 2.553197 -1.166866 -0.797800 1.146463 12.297764 1.119097 -0.405227 6.117057 0.960441 -0.374589 -4.758719 0.000000 0.000000 0.000000 0.520869 2.802467 -28.082376 3.136304 -0.278403 8.644585 -3.530884 -12.082670 17.507042 0.000000 0.000000 0.000000 -0.206422 -0.724677 16.563428 3.295271 -1.997117 5.296999 -1.579618 -5.617351 4.653750 0.753474 -0.282356 -6.826058 0.000000 0.000000 0.000000 -24.638990 -10.968020 5.623850 -40.223423 -13.885854 -0.884763 7.306044 -49.382458 -0.679735 0.000000 0.000000 0.000000 21.173826 3.823022 -1.038206 48.557406 -9.368482 -8.034308 21.302152 59.531781 13.274851 0.000000 0.000000 0.000000 
0.054477 0.899668 0.326866 -2.231814 2.969514 -0.495979 -0.654737 1.332659 14.742229 1.296681 -0.393336 5.306327 0.831815 -0.775448 -4.888310 0.000000 0.000000 0.000000 1.197977 3.098258 -29.797549 2.302764 -0.082139 12.209428 -2.244196 -9.870086 17.404050 0.000000 0.000000 0.000000 0.948940 -0.918284 16.727831 3.916851 -2.301216 4.835020 -3.411475 -5.534083 5.187008 1.393448 -0.757106 -6.182289 0.000000 0.000000 0.000000 -23.799451 -11.713977 5.814496 -40.942538 -15.243557 -0.373544 7.789397 -50.299570 -0.982990 0.000000 0.000000 0.000000 22.251383 4.090025 -0.805451 49.063628 -8.581519 -7.869760 18.350534 60.660321 12.053909 0.000000 0.000000 0.000000 
0.050768 0.891364 0.372165 -2.345389 4.522908 0.097943 0.217116 1.230282 15.900187 1.953016 -0.597224 7.035889 0.043952 -2.011322 -3.728251 0.000000 0.000000 0.000000 1.655545 3.230562 -31.336403 2.150802 -0.051518 18.434792 -2.097404 -9.123309 15.974031 0.000000 0.000000 0.000000 2.540137 -1.266429 17.428138 3.768925 -2.354657 5.925943 -3.238075 -5.905640 3.498750 1.316601 -0.664484 -6.040887 0.000000 0.000000 0.000000 -24.189933 -12.011897 5.853646 -41.573285 -16.010241 0.078305 4.983349 -49.235246 0.211212 0.000000 0.000000 0.000000 23.019511 3.883271 -0.969044 48.786998 -8.650679 -7.694031 16.418977 60.998934 11.007639 0.000000 0.000000 0.000000 
0.044946 0.888373 0.421563 -2.879791 5.102811 1.092858 1.409518 1.002043 15.785568 2.286292 -0.877793 10.425575 -1.043403 -1.590369 1.051735 0.000000 0.000000 0.000000 2.037956 3.396340 -32.650901 3.668840 -0.608889 24.485017 -2.493058 -9.091776 12.223593 0.000000 0.000000 0.000000 4.061375 -1.532375 17.206890 4.502622 -2.897995 7.143971 -3.744807 -6.076327 2.187337 1.452849 -0.796867 -5.086834 0.000000 0.000000 0.000000 -25.527654 -11.862763 5.736200 -41.808448 -15.429984 0.021373 0.567914 -46.588368 1.992914 0.000000 0.000000 0.000000 23.744733 4.898872 -0.431059 48.437576 -7.511425 -7.055837 12.443626 60.163339 8.544138 0.000000 0.000000 0.000000 
0.037758 0.891302 0.473275 -3.699343 5.123985 2.130807 3.196183 0.581879 13.134907 1.504909 -1.230861 18.088930 -2.602884 -0.280666 9.341743 0.000000 0.000000 0.000000 3.664150 3.863640 -32.956775 3.963834 -0.820565 29.020713 -3.023699 -9.583751 9.189906 0.000000 0.000000 0.000000 5.661721 -1.745592 16.435411 4.592748 -3.000415 7.702376 -3.646373 -5.751592 0.970562 0.774018 -0.469394 -2.130434 0.000000 0.000000 0.000000 -26.510472 -11.383394 5.335286 -42.312471 -13.061840 -0.635707 -3.045988 -42.961130 3.151853 0.000000 0.000000 0.000000 23.435472 4.727128 -0.437647 47.956241 -7.075041 -6.714076 12.918182 57.229042 8.314390 0.000000 0.000000 0.000000 
